<svg id="svg" version="1.1" width="1000" height="389" xmlns="http://www.w3.org/2000/svg" xmlns:xlink="http://www.w3.org/1999/xlink" style="display: block;"><g id="svgg"><path id="path0" d="M36.305 35.483 C 36.802 35.579,37.522 35.575,37.905 35.475 C 38.287 35.375,37.880 35.296,37.000 35.301 C 36.120 35.305,35.807 35.387,36.305 35.483 " stroke="none" fill="#aa0000" fill-rule="evenodd"></path><path id="path1" d="M69.587 1.435 C 69.343 2.076,68.050 5.210,66.712 8.400 C 65.375 11.590,63.789 15.550,63.188 17.200 C 62.587 18.850,60.726 23.530,59.052 27.600 L 56.008 35.000 46.304 35.245 C 40.967 35.380,36.288 35.515,35.907 35.545 C 35.271 35.595,35.204 36.468,35.107 46.055 L 35.000 56.509 30.400 58.414 C 22.835 61.547,12.928 65.528,7.508 67.613 C -1.327 71.011,-1.249 70.884,4.000 73.282 C 5.430 73.935,8.760 75.573,11.400 76.921 C 14.040 78.270,17.100 79.808,18.200 80.339 C 19.300 80.870,23.454 82.923,27.430 84.901 C 32.461 87.404,34.906 88.420,35.468 88.242 C 36.477 87.922,87.842 36.051,87.686 35.510 C 87.308 34.204,70.951 1.263,70.368 0.635 C 70.174 0.425,69.842 0.765,69.587 1.435 " stroke="none" fill="#f0455a" fill-rule="evenodd"></path><path id="path2" d="" stroke="none" fill="#ff0000" fill-rule="evenodd"></path><path id="path3" d="M167.200 16.051 C 159.998 16.580,158.800 17.223,158.800 20.560 C 158.800 23.450,159.998 24.518,163.446 24.703 C 167.057 24.896,168.247 25.387,168.774 26.897 C 169.322 28.468,169.322 40.971,168.778 91.800 L 168.345 132.200 167.139 133.257 C 161.668 138.053,150.856 142.476,146.088 141.868 C 139.122 140.980,130.368 133.617,119.480 119.491 C 118.425 118.121,117.043 116.445,116.410 115.766 C 115.778 115.088,114.302 113.280,113.130 111.749 C 111.959 110.218,108.480 105.852,105.400 102.046 C 102.320 98.241,99.186 94.288,98.436 93.264 C 97.687 92.239,95.797 89.838,94.236 87.929 C 92.676 86.020,90.817 83.680,90.105 82.729 C 89.393 81.778,88.225 80.311,87.510 79.469 L 86.211 77.939 102.605 61.646 C 119.801 44.557,120.951 43.600,124.277 43.600 C 126.021 43.600,126.383 43.314,127.178 41.308 C 128.350 38.354,125.802 36.575,119.731 36.109 C 111.762 35.498,113.248 34.275,73.100 74.491 L 38.800 108.849 38.800 131.224 L 38.800 153.600 47.000 153.600 L 55.200 153.600 55.200 131.097 L 55.200 108.594 65.222 98.597 L 75.245 88.600 76.039 89.600 C 77.664 91.648,80.277 94.965,82.800 98.184 C 85.748 101.945,90.296 107.614,93.816 111.912 C 95.127 113.514,97.010 115.865,98.000 117.137 C 98.990 118.409,100.797 120.608,102.016 122.025 C 103.235 123.441,104.747 125.320,105.376 126.200 C 106.005 127.080,106.718 127.980,106.960 128.200 C 107.202 128.420,109.221 130.670,111.447 133.200 C 117.966 140.611,125.966 148.471,128.488 149.946 C 140.331 156.869,153.082 154.163,168.685 141.415 L 169.971 140.365 171.148 142.682 C 178.383 156.929,198.245 157.338,216.062 143.607 L 217.123 142.789 217.969 144.495 C 223.202 155.053,243.661 159.424,256.812 152.793 C 262.371 149.989,271.414 141.898,273.422 137.929 C 273.792 137.198,274.568 135.970,275.147 135.200 C 275.726 134.430,276.847 132.573,277.638 131.073 L 279.075 128.346 279.333 132.555 C 280.130 145.594,284.454 152.249,293.701 154.672 C 302.927 157.089,315.974 153.380,325.611 145.600 L 329.000 142.863 329.914 143.829 C 336.678 150.978,352.257 156.118,365.171 155.461 C 379.759 154.720,398.000 146.316,398.000 140.336 C 398.000 135.573,395.061 134.436,390.269 137.345 C 370.766 149.184,346.267 146.563,335.984 131.536 C 335.030 130.141,333.841 128.401,333.342 127.670 C 327.140 118.574,327.931 96.740,334.872 85.468 C 335.932 83.746,336.800 82.191,336.800 82.014 C 336.800 81.006,344.316 74.668,347.892 72.660 C 367.545 61.627,390.312 71.646,386.387 89.600 C 386.171 90.590,385.903 91.798,385.793 92.283 C 383.808 101.043,358.675 109.342,340.097 107.372 C 336.751 107.017,336.400 107.342,336.400 110.800 C 336.400 114.780,335.825 114.600,348.562 114.597 C 362.821 114.594,371.469 113.253,379.748 109.761 C 381.523 109.013,383.194 108.400,383.462 108.400 C 383.729 108.400,385.556 107.324,387.523 106.009 C 408.176 92.194,401.872 65.681,376.656 60.307 C 354.421 55.568,331.127 65.827,321.545 84.578 C 320.640 86.350,319.759 87.980,319.587 88.200 C 319.416 88.420,318.618 90.490,317.814 92.800 C 313.269 105.856,315.138 125.488,321.753 134.176 C 323.739 136.784,323.618 137.153,319.830 140.012 C 314.620 143.946,307.148 146.047,302.801 144.800 C 294.017 142.281,292.258 134.307,292.828 99.600 C 293.007 88.710,293.164 76.321,293.177 72.069 L 293.200 64.338 292.031 63.169 C 290.904 62.042,290.725 62.000,287.090 62.000 C 278.947 62.000,279.622 59.343,279.343 92.485 L 279.113 119.800 276.268 124.200 C 266.584 139.178,254.633 145.712,241.866 143.007 C 236.087 141.782,232.265 139.001,229.706 134.159 C 227.118 129.262,227.120 129.297,227.267 97.800 C 227.408 67.651,227.393 67.371,225.522 64.991 L 224.646 63.878 216.623 64.157 C 204.315 64.585,203.194 64.952,203.205 68.544 C 203.217 72.160,204.334 73.200,208.200 73.200 C 210.705 73.200,212.537 73.962,213.256 75.304 C 213.616 75.975,213.748 83.392,213.783 104.800 C 213.808 120.530,213.912 133.680,214.014 134.022 C 214.472 135.555,205.996 141.272,201.527 142.446 C 191.278 145.137,186.018 141.378,183.489 129.558 L 182.600 125.400 182.600 73.000 C 182.600 22.730,182.570 20.531,181.854 18.893 C 180.335 15.420,179.086 15.177,167.200 16.051 " stroke="none" fill="#282625" fill-rule="evenodd"></path><path id="path4" d="" stroke="none" fill="#ff00ff" fill-rule="evenodd"></path></g></svg>