<?xml version="1.0" standalone="no"?>
<!DOCTYPE svg PUBLIC "-//W3C//DTD SVG 20010904//EN"
 "http://www.w3.org/TR/2001/REC-SVG-20010904/DTD/svg10.dtd">
<svg version="1.0" xmlns="http://www.w3.org/2000/svg"
 width="1057.000000pt" height="412.000000pt" viewBox="0 0 1057.000000 412.000000"
 preserveAspectRatio="xMidYMid meet">
<metadata>
Created by potrace 1.13, written by Peter Selinger 2001-2015
</metadata>
<g transform="translate(0.000000,412.000000) scale(0.100000,-0.100000)"
fill="#000000" stroke="none">
<path d="M1670 3639 l-185 -464 -277 -3 -278 -2 0 -278 0 -278 -455 -184
c-250 -102 -455 -187 -455 -190 0 -3 205 -108 456 -233 l456 -228 687 692
c377 380 687 695 689 699 1 4 -100 215 -225 470 l-228 463 -185 -464z"/>
<path d="M4590 3693 c-188 -8 -323 -23 -344 -37 -33 -21 -51 -70 -40 -108 14
-50 48 -67 141 -75 98 -7 122 -25 134 -100 8 -47 -6 -2064 -17 -2529 l-6 -242
-107 -71 c-188 -124 -313 -171 -457 -171 -129 0 -228 43 -362 159 -118 102
-385 422 -1019 1222 l-251 317 437 434 c467 466 494 488 588 488 37 0 44 4 58
31 9 16 15 45 13 62 -3 30 -8 34 -68 53 -99 33 -167 38 -240 20 -147 -38 -110
-5 -1097 -995 l-913 -914 0 -589 0 -588 200 0 200 0 0 594 0 594 271 266 c149
146 274 266 279 266 4 0 165 -197 357 -437 431 -539 536 -666 709 -854 252
-275 351 -355 499 -402 98 -31 268 -31 376 0 158 46 347 153 497 282 61 52 73
59 78 44 18 -55 69 -146 104 -185 139 -158 412 -207 683 -122 111 35 265 115
364 190 l82 62 32 -56 c46 -83 143 -173 231 -216 194 -95 470 -112 679 -41
253 87 494 317 651 623 l53 104 6 -149 c13 -326 109 -492 335 -575 50 -18 81
-22 209 -22 128 -1 162 2 230 22 157 45 368 162 477 264 l48 44 22 -24 c35
-37 146 -116 218 -155 325 -179 741 -211 1111 -87 159 53 321 142 424 233 36
31 40 40 40 80 0 53 -27 96 -68 110 -30 10 -32 8 -162 -67 -245 -142 -565
-205 -816 -161 -364 63 -635 296 -735 630 -50 170 -45 517 12 714 110 382 421
651 797 690 303 31 561 -78 660 -278 31 -63 32 -70 32 -191 0 -123 -1 -127
-34 -195 -122 -247 -450 -367 -1041 -382 -130 -3 -241 -10 -247 -16 -8 -5 -13
-33 -13 -67 0 -97 -5 -95 304 -94 285 0 423 14 621 61 477 113 734 364 735
719 0 256 -158 472 -429 583 -375 155 -848 102 -1201 -134 -370 -247 -580
-651 -580 -1113 0 -255 64 -485 184 -661 20 -30 35 -58 34 -62 -8 -22 -152
-125 -223 -159 -102 -50 -166 -63 -276 -58 -75 3 -94 8 -135 34 -115 71 -170
215 -196 512 -9 105 -9 307 0 857 12 784 15 743 -43 781 -21 14 -41 15 -126 9
-92 -7 -104 -10 -133 -35 l-31 -28 -5 -729 -5 -728 -42 -71 c-174 -293 -404
-489 -653 -555 -67 -18 -243 -16 -318 4 -189 50 -310 169 -357 352 -13 51 -15
170 -15 822 0 527 -3 778 -11 815 -8 34 -22 62 -41 82 l-29 29 -142 -7 c-339
-16 -338 -16 -374 -52 -25 -24 -33 -41 -33 -67 0 -70 58 -107 167 -107 44 0
58 -5 85 -29 l33 -29 0 -739 c0 -406 4 -761 9 -789 l8 -50 -60 -55 c-186 -168
-421 -231 -577 -154 -133 65 -192 220 -217 570 -9 131 -9 433 0 1320 6 696 7
1187 2 1243 -10 96 -33 165 -66 194 -23 20 -66 26 -164 21z"/>
</g>
</svg>
